<svg width="24" height="24" viewBox="0 0 24 24" fill="none" xmlns="http://www.w3.org/2000/svg">
<path d="M15.8232 8.81397C15.8232 8.64497 15.8904 8.48289 16.0099 8.36339C16.1294 8.24389 16.2915 8.17676 16.4605 8.17676H19.0093C19.1783 8.17676 19.3404 8.24389 19.4599 8.36339C19.5794 8.48289 19.6465 8.64497 19.6465 8.81397V10.0884C19.6465 10.2574 19.5794 10.4195 19.4599 10.539C19.3404 10.6585 19.1783 10.7256 19.0093 10.7256H16.4605C16.2915 10.7256 16.1294 10.6585 16.0099 10.539C15.8904 10.4195 15.8232 10.2574 15.8232 10.0884V8.81397Z" fill="#1262AE"/>
<path d="M4.35352 4.35352C3.67753 4.35352 3.02922 4.62205 2.55122 5.10005C2.07322 5.57805 1.80469 6.22636 1.80469 6.90235L1.80469 17.0977C1.80469 17.7737 2.07322 18.422 2.55122 18.9C3.02922 19.378 3.67753 19.6465 4.35352 19.6465H19.6465C20.3225 19.6465 20.9708 19.378 21.4488 18.9C21.9268 18.422 22.1954 17.7737 22.1954 17.0977V6.90235C22.1954 6.22636 21.9268 5.57805 21.4488 5.10005C20.9708 4.62205 20.3225 4.35352 19.6465 4.35352H4.35352ZM20.921 6.90235V13.2744H3.07911V6.90235C3.07911 6.56436 3.21337 6.2402 3.45237 6.0012C3.69137 5.7622 4.01553 5.62793 4.35352 5.62793H19.6465C19.9845 5.62793 20.3087 5.7622 20.5477 6.0012C20.7867 6.2402 20.921 6.56436 20.921 6.90235ZM19.6465 18.3721H4.35352C4.01553 18.3721 3.69137 18.2378 3.45237 17.9988C3.21337 17.7598 3.07911 17.4357 3.07911 17.0977V15.8233H20.921V17.0977C20.921 17.4357 20.7867 17.7598 20.5477 17.9988C20.3087 18.2378 19.9845 18.3721 19.6465 18.3721Z" fill="#1262AE"/>
</svg>
