<svg width="24" height="24" viewBox="0 0 24 24" fill="none" xmlns="http://www.w3.org/2000/svg">
<g clip-path="url(#clip0_57_63671)">
<path d="M12.0666 7.33337C9.46657 7.33337 7.3999 9.40004 7.3999 12C7.3999 14.6 9.46657 16.6667 12.0666 16.6667C14.6666 16.6667 16.7332 14.6 16.7332 12C16.7332 9.40004 14.6666 7.33337 12.0666 7.33337ZM12.0666 15.3334C10.1999 15.3334 8.73324 13.8667 8.73324 12C8.73324 10.1334 10.1999 8.66671 12.0666 8.66671C13.9332 8.66671 15.3999 10.1334 15.3999 12C15.3999 13.8667 13.9332 15.3334 12.0666 15.3334Z" fill="#1262AE"/>
<path d="M21.8668 9.80004L20.0002 9.20004L19.6002 8.20004L20.5335 6.46671C20.7335 6.06671 20.6668 5.53337 20.3335 5.20004L18.7335 3.60004C18.4002 3.26671 17.8668 3.20004 17.4668 3.40004L15.7335 4.33337L14.7335 3.93337L14.1335 2.06671C14.0002 1.66671 13.6002 1.33337 13.1335 1.33337H10.8668C10.4002 1.33337 10.0002 1.66671 9.9335 2.13337L9.3335 4.00004C8.9335 4.06671 8.60016 4.20004 8.26683 4.40004L6.5335 3.46671C6.1335 3.26671 5.60016 3.33337 5.26683 3.66671L3.66683 5.26671C3.3335 5.60004 3.26683 6.13337 3.46683 6.53337L4.3335 8.20004C4.20016 8.53337 4.06683 8.93337 3.9335 9.26671L2.06683 9.86671C1.66683 10 1.3335 10.4 1.3335 10.8667V13.1334C1.3335 13.6 1.66683 14 2.1335 14.1334L4.00016 14.7334L4.40016 15.7334L3.46683 17.4667C3.26683 17.8667 3.3335 18.4 3.66683 18.7334L5.26683 20.3334C5.60016 20.6667 6.1335 20.7334 6.5335 20.5334L8.26683 19.6L9.26683 20L9.86683 21.9334C10.0002 22.3334 10.4002 22.6667 10.8668 22.6667H13.1335C13.6002 22.6667 14.0002 22.3334 14.1335 21.9334L14.7335 20L15.7335 19.6L17.4668 20.5334C17.8668 20.7334 18.4002 20.6667 18.7335 20.3334L20.3335 18.7334C20.6668 18.4 20.7335 17.8667 20.5335 17.4667L19.6002 15.7334L20.0002 14.7334L21.9335 14.1334C22.3335 14 22.6668 13.6 22.6668 13.1334V10.8667C22.6668 10.4 22.3335 9.93337 21.8668 9.80004ZM21.3335 12.9334L18.9335 13.6667L18.8668 14L18.2668 15.4L18.0668 15.7334L19.2668 17.9334L17.9335 19.2667L15.7335 18.0667L15.4002 18.2667C14.9335 18.5334 14.4668 18.7334 14.0002 18.8667L13.6668 18.9334L12.9335 21.3334H11.0668L10.3335 18.9334L10.0002 18.8667L8.60016 18.2667L8.26683 18.0667L6.06683 19.2667L4.7335 17.9334L5.9335 15.7334L5.7335 15.4C5.46683 14.9334 5.26683 14.4667 5.1335 14L5.06683 13.6667L2.66683 12.9334V11.0667L4.9335 10.4L5.06683 10.0667C5.20016 9.53337 5.40016 9.06671 5.66683 8.60004L5.86683 8.26671L4.7335 6.06671L6.06683 4.73337L8.20016 5.93337L8.5335 5.73337C9.00016 5.46671 9.46683 5.26671 10.0002 5.13337L10.3335 5.00004L11.0668 2.66671H12.9335L13.6668 5.00004L14.0002 5.13337C14.4668 5.26671 14.9335 5.46671 15.4002 5.73337L15.7335 5.93337L17.9335 4.73337L19.2668 6.06671L18.0668 8.26671L18.2668 8.60004C18.5335 9.06671 18.7335 9.53337 18.8668 10L18.9335 10.3334L21.3335 11.0667V12.9334Z" fill="#1262AE"/>
</g>
<defs>
<clipPath id="clip0_57_63671">
<rect width="24" height="24" fill="white"/>
</clipPath>
</defs>
</svg>
