<svg width="24" height="24" viewBox="0 0 24 24" fill="none" xmlns="http://www.w3.org/2000/svg">
<path fill-rule="evenodd" clip-rule="evenodd" d="M12 9.41531C11.4777 9.41531 10.9768 9.6228 10.6075 9.99212C10.2381 10.3614 10.0306 10.8624 10.0306 11.3847C10.0306 11.907 10.2381 12.4079 10.6075 12.7772C10.9768 13.1465 11.4777 13.354 12 13.354C12.5223 13.354 13.0232 13.1465 13.3925 12.7772C13.7618 12.4079 13.9693 11.907 13.9693 11.3847C13.9693 10.8624 13.7618 10.3614 13.3925 9.99212C13.0232 9.6228 12.5223 9.41531 12 9.41531ZM8.7998 11.3847C8.7998 10.5359 9.13697 9.72194 9.73712 9.12179C10.3373 8.52164 11.1512 8.18448 12 8.18448C12.8487 8.18448 13.6627 8.52164 14.2629 9.12179C14.863 9.72194 15.2002 10.5359 15.2002 11.3847C15.2002 12.2334 14.863 13.0474 14.2629 13.6475C13.6627 14.2477 12.8487 14.5848 12 14.5848C11.1512 14.5848 10.3373 14.2477 9.73712 13.6475C9.13697 13.0474 8.7998 12.2334 8.7998 11.3847ZM10.9538 7.07672C10.9538 6.9135 11.0186 6.75697 11.134 6.64156C11.2494 6.52614 11.406 6.4613 11.5692 6.4613H12.4308C12.594 6.4613 12.7505 6.52614 12.8659 6.64156C12.9814 6.75697 13.0462 6.9135 13.0462 7.07672C13.0462 7.23994 12.9814 7.39648 12.8659 7.51189C12.7505 7.6273 12.594 7.69214 12.4308 7.69214H11.5692C11.406 7.69214 11.2494 7.6273 11.134 7.51189C11.0186 7.39648 10.9538 7.23994 10.9538 7.07672Z" fill="#1262AE"/>
<path fill-rule="evenodd" clip-rule="evenodd" d="M11.3848 9.23067V7.50749H12.6156V9.23067H11.3848ZM14.1498 7.50319C14.2653 7.38781 14.4218 7.323 14.5849 7.323C14.7481 7.323 14.9046 7.38781 15.02 7.50319L15.8816 8.36477C15.9937 8.48084 16.0558 8.6363 16.0544 8.79766C16.053 8.95902 15.9882 9.11337 15.8741 9.22748C15.76 9.34158 15.6057 9.4063 15.4443 9.40771C15.283 9.40911 15.1275 9.34708 15.0114 9.23497L14.1498 8.37339C14.0345 8.25798 13.9697 8.10147 13.9697 7.93829C13.9697 7.7751 14.0345 7.61859 14.1498 7.50319Z" fill="#1262AE"/>
<path fill-rule="evenodd" clip-rule="evenodd" d="M13.2881 9.22634L14.5805 7.93396L15.4507 8.80416L14.1583 10.0965L13.2881 9.22634ZM16.3079 10.3384C16.4712 10.3384 16.6277 10.4032 16.7431 10.5187C16.8585 10.6341 16.9234 10.7906 16.9234 10.9538V11.8154C16.9234 11.9786 16.8585 12.1352 16.7431 12.2506C16.6277 12.366 16.4712 12.4308 16.3079 12.4308C16.1447 12.4308 15.9882 12.366 15.8728 12.2506C15.7574 12.1352 15.6925 11.9786 15.6925 11.8154V10.9538C15.6925 10.7906 15.7574 10.6341 15.8728 10.5187C15.9882 10.4032 16.1447 10.3384 16.3079 10.3384Z" fill="#1262AE"/>
<path fill-rule="evenodd" clip-rule="evenodd" d="M13.9692 11.3846C13.9692 11.2214 14.0341 11.0648 14.1495 10.9494C14.2649 10.834 14.4214 10.7692 14.5847 10.7692H16.3078C16.471 10.7692 16.6276 10.834 16.743 10.9494C16.8584 11.0648 16.9232 11.2214 16.9232 11.3846C16.9232 11.5478 16.8584 11.7043 16.743 11.8198C16.6276 11.9352 16.471 12 16.3078 12H14.5847C14.4214 12 14.2649 11.9352 14.1495 11.8198C14.0341 11.7043 13.9692 11.5478 13.9692 11.3846ZM16.3121 13.5342C16.4275 13.6497 16.4923 13.8062 16.4923 13.9693C16.4923 14.1325 16.4275 14.289 16.3121 14.4044L15.4506 15.266C15.3938 15.3248 15.3259 15.3717 15.2508 15.4039C15.1757 15.4362 15.0949 15.4532 15.0132 15.4539C14.9315 15.4546 14.8505 15.439 14.7748 15.4081C14.6992 15.3771 14.6305 15.3314 14.5727 15.2737C14.5149 15.2159 14.4692 15.1472 14.4383 15.0715C14.4074 14.9959 14.3918 14.9149 14.3925 14.8331C14.3932 14.7514 14.4102 14.6707 14.4424 14.5956C14.4747 14.5205 14.5216 14.4526 14.5803 14.3958L15.4419 13.5342C15.5573 13.4189 15.7138 13.3541 15.877 13.3541C16.0402 13.3541 16.1967 13.4189 16.3121 13.5342Z" fill="#1262AE"/>
<path fill-rule="evenodd" clip-rule="evenodd" d="M14.5889 12.6727L15.8813 13.9651L15.0111 14.8353L13.7187 13.5429L14.5889 12.6727ZM10.9536 15.6926C10.9536 15.5294 11.0185 15.3728 11.1339 15.2574C11.2493 15.142 11.4058 15.0772 11.569 15.0772H12.4306C12.5938 15.0772 12.7504 15.142 12.8658 15.2574C12.9812 15.3728 13.046 15.5294 13.046 15.6926C13.046 15.8558 12.9812 16.0123 12.8658 16.1278C12.7504 16.2432 12.5938 16.308 12.4306 16.308H11.569C11.4058 16.308 11.2493 16.2432 11.1339 16.1278C11.0185 16.0123 10.9536 15.8558 10.9536 15.6926Z" fill="#1262AE"/>
<path fill-rule="evenodd" clip-rule="evenodd" d="M12.0001 13.354C12.1633 13.354 12.3199 13.4188 12.4353 13.5343C12.5507 13.6497 12.6155 13.8062 12.6155 13.9694V15.6926C12.6155 15.8558 12.5507 16.0123 12.4353 16.1278C12.3199 16.2432 12.1633 16.308 12.0001 16.308C11.8369 16.308 11.6804 16.2432 11.5649 16.1278C11.4495 16.0123 11.3847 15.8558 11.3847 15.6926V13.9694C11.3847 13.8062 11.4495 13.6497 11.5649 13.5343C11.6804 13.4188 11.8369 13.354 12.0001 13.354ZM8.11866 13.5343C8.23407 13.4189 8.39058 13.3541 8.55376 13.3541C8.71695 13.3541 8.87346 13.4189 8.98887 13.5343L9.85045 14.3959C9.96256 14.512 10.0246 14.6674 10.0232 14.8288C10.0218 14.9902 9.95706 15.1445 9.84295 15.2586C9.72885 15.3727 9.5745 15.4374 9.41314 15.4388C9.25178 15.4402 9.09632 15.3782 8.98025 15.2661L8.11866 14.4045C8.00329 14.2891 7.93848 14.1326 7.93848 13.9694C7.93848 13.8062 8.00329 13.6497 8.11866 13.5343Z" fill="#1262AE"/>
<path fill-rule="evenodd" clip-rule="evenodd" d="M10.7119 13.5429L9.41956 14.8352L8.54936 13.965L9.84174 12.6727L10.7119 13.5429ZM7.69208 10.3384C7.8553 10.3384 8.01183 10.4032 8.12725 10.5186C8.24266 10.634 8.3075 10.7906 8.3075 10.9538V11.8154C8.3075 11.9786 8.24266 12.1351 8.12725 12.2506C8.01183 12.366 7.8553 12.4308 7.69208 12.4308C7.52886 12.4308 7.37233 12.366 7.25691 12.2506C7.1415 12.1351 7.07666 11.9786 7.07666 11.8154V10.9538C7.07666 10.7906 7.1415 10.634 7.25691 10.5186C7.37233 10.4032 7.52886 10.3384 7.69208 10.3384Z" fill="#1262AE"/>
<path fill-rule="evenodd" clip-rule="evenodd" d="M7.07666 11.3846C7.07666 11.2214 7.1415 11.0649 7.25691 10.9495C7.37233 10.8341 7.52886 10.7692 7.69208 10.7692H9.41525C9.57847 10.7692 9.73501 10.8341 9.85042 10.9495C9.96583 11.0649 10.0307 11.2214 10.0307 11.3846C10.0307 11.5479 9.96583 11.7044 9.85042 11.8198C9.73501 11.9352 9.57847 12.0001 9.41525 12.0001H7.69208C7.52886 12.0001 7.37233 11.9352 7.25691 11.8198C7.1415 11.7044 7.07666 11.5479 7.07666 11.3846ZM9.85035 7.50319C9.96573 7.61859 10.0305 7.7751 10.0305 7.93829C10.0305 8.10147 9.96573 8.25798 9.85035 8.37339L8.98877 9.23497C8.8727 9.34708 8.71724 9.40911 8.55588 9.40771C8.39452 9.4063 8.24016 9.34158 8.12606 9.22748C8.01196 9.11337 7.94724 8.95902 7.94583 8.79766C7.94443 8.6363 8.00646 8.48084 8.11856 8.36477L8.98015 7.50319C9.09556 7.38781 9.25206 7.323 9.41525 7.323C9.57844 7.323 9.73495 7.38781 9.85035 7.50319Z" fill="#1262AE"/>
<path fill-rule="evenodd" clip-rule="evenodd" d="M9.8417 10.0965L8.54932 8.80416L9.41952 7.93396L10.7119 9.22634L9.8417 10.0965Z" fill="#1262AE"/>
<path fill-rule="evenodd" clip-rule="evenodd" d="M12 0.923099C14.9731 0.896411 17.9193 1.48716 20.6522 2.65797L20.6615 2.66227C21.0153 2.82062 21.3159 3.07768 21.5273 3.40262C21.7378 3.72695 21.8492 4.10543 21.8468 4.49191V11.5705C21.8468 13.3761 21.4406 15.5436 20.1457 17.5954C18.8472 19.6528 16.6815 21.5513 13.237 22.8523C12.4398 23.1531 11.5603 23.1531 10.7631 22.8523C7.31794 21.5495 5.15228 19.6583 3.85375 17.6046C2.55891 15.5571 2.15335 13.3896 2.15335 11.5698V4.49191C2.15135 4.10536 2.2626 3.72668 2.47336 3.40262C2.6846 3.07777 2.98503 2.82072 3.33864 2.66227L3.34787 2.65797C6.08076 1.48695 9.02697 0.89599 12 0.922484V0.923099ZM2.76877 4.48945H3.38418V11.5698C3.38418 13.2118 3.74974 15.1374 4.89381 16.9461C6.03356 18.7493 7.97336 20.4811 11.1982 21.7009C11.7152 21.8959 12.2855 21.8959 12.8026 21.7009C16.0243 20.4836 17.9641 18.745 19.1044 16.9375C20.2497 15.1233 20.6159 13.1964 20.6159 11.5692V4.48576C20.6168 4.3392 20.5747 4.19561 20.4947 4.07281C20.4147 3.94973 20.2996 3.84942 20.1617 3.78664C17.5852 2.68412 14.8079 2.12837 12.0056 2.15455H11.9945C9.19215 2.12837 6.41486 2.68412 3.83836 3.78664C3.70272 3.84834 3.58745 3.94739 3.50604 4.0722C3.42576 4.19513 3.38339 4.33894 3.38418 4.48576L2.76877 4.49007V4.48945Z" fill="#1262AE"/>
</svg>
