<svg width="22" height="22" viewBox="0 0 22 22" fill="none" xmlns="http://www.w3.org/2000/svg">
<path d="M11.0001 13.6317H7.42886C4.31421 13.6317 1.78906 15.8411 1.78906 18.5662V20.2111M20.2112 4.42067V11C20.2112 11.698 19.9339 12.3674 19.4404 12.8609C18.9468 13.3545 18.2774 13.6317 17.5794 13.6317H14.9477V20.2111M13.6319 5.73654C13.6319 6.25494 13.5297 6.76827 13.3314 7.24722C13.133 7.72616 12.8422 8.16134 12.4756 8.52791C12.1091 8.89448 11.6739 9.18526 11.1949 9.38364C10.716 9.58203 10.2027 9.68413 9.68426 9.68413C9.16585 9.68413 8.65252 9.58203 8.17358 9.38364C7.69463 9.18526 7.25945 8.89448 6.89288 8.52791C6.52631 8.16134 6.23554 7.72616 6.03715 7.24722C5.83877 6.76827 5.73666 6.25494 5.73666 5.73654C5.73666 4.68957 6.15256 3.68548 6.89288 2.94516C7.6332 2.20485 8.63729 1.78894 9.68426 1.78894C10.7312 1.78894 11.7353 2.20485 12.4756 2.94516C13.2159 3.68548 13.6319 4.68957 13.6319 5.73654V5.73654Z" stroke="#1262AE" stroke-width="1.5" stroke-linecap="round" stroke-linejoin="round"/>
</svg>
