<svg width="23" height="22" viewBox="0 0 23 22" fill="none" xmlns="http://www.w3.org/2000/svg">
<path d="M11.4999 1.63452C9.64754 1.63452 7.83679 2.1838 6.29663 3.21291C4.75647 4.24201 3.55605 5.70472 2.84719 7.41606C2.13834 9.1274 1.95287 11.0105 2.31424 12.8273C2.67561 14.644 3.5676 16.3128 4.8774 17.6226C6.1872 18.9324 7.85599 19.8244 9.67274 20.1858C11.4895 20.5471 13.3726 20.3617 15.0839 19.6528C16.7953 18.9439 18.258 17.7435 19.2871 16.2034C20.3162 14.6632 20.8655 12.8525 20.8655 11.0001C20.8655 8.51621 19.8787 6.13403 18.1224 4.37764C16.366 2.62125 13.9838 1.63452 11.4999 1.63452Z" stroke="#1262AE" stroke-width="1.5" stroke-miterlimit="10"/>
<path d="M8.52002 8.1419C8.52002 8.1419 8.56472 7.21066 9.56141 6.40874C10.1526 5.93247 10.8614 5.79465 11.5 5.78507C12.0816 5.77762 12.601 5.87394 12.9117 6.02187C13.4439 6.27517 14.4799 6.89351 14.4799 8.20842C14.4799 9.59197 13.5753 10.2204 12.5446 10.9117C11.5138 11.6029 11.2339 12.3532 11.2339 13.1285" stroke="#1262AE" stroke-width="1.5" stroke-miterlimit="10" stroke-linecap="round"/>
<path d="M11.1805 16.9598C11.7683 16.9598 12.2448 16.4834 12.2448 15.8956C12.2448 15.3078 11.7683 14.8313 11.1805 14.8313C10.5927 14.8313 10.1162 15.3078 10.1162 15.8956C10.1162 16.4834 10.5927 16.9598 11.1805 16.9598Z" fill="#1262AE"/>
</svg>
