<svg width="36" height="36" viewBox="0 0 36 36" fill="none" xmlns="http://www.w3.org/2000/svg">
<path d="M13.0887 35.0325C14.774 35.5416 16.4768 35.84 18.285 35.84C22.9409 35.84 27.4061 33.9905 30.6983 30.6983C33.9905 27.4061 35.84 22.9409 35.84 18.285C35.84 15.9796 35.3859 13.6969 34.5037 11.567C33.6215 9.43713 32.3284 7.50188 30.6983 5.87174C29.0681 4.24161 27.1329 2.94852 25.003 2.0663C22.8731 1.18408 20.5904 0.730003 18.285 0.730003C15.9796 0.730003 13.6969 1.18408 11.567 2.0663C9.43712 2.94852 7.50187 4.24161 5.87174 5.87174C2.57954 9.16395 0.73 13.6291 0.73 18.285C0.73 25.7459 5.41718 32.1535 12.0354 34.6814C11.8774 33.3121 11.7194 31.0475 12.0354 29.4851L14.0542 20.8129C14.0542 20.8129 13.5452 19.7947 13.5452 18.1797C13.5452 15.7571 15.0549 13.9489 16.7753 13.9489C18.285 13.9489 18.9872 15.0549 18.9872 16.4768C18.9872 17.9866 17.9866 20.1458 17.4775 22.2173C17.179 23.9377 18.3903 25.4474 20.1458 25.4474C23.2706 25.4474 25.6932 22.112 25.6932 17.4073C25.6932 13.1941 22.6737 10.315 18.3377 10.315C13.3872 10.315 10.473 14.0016 10.473 17.8812C10.473 19.391 10.9646 20.9183 11.7721 21.9189C11.9301 22.0242 11.9301 22.1647 11.8774 22.428L11.3683 24.3415C11.3683 24.6399 11.1752 24.7452 10.8768 24.5346C8.62975 23.5515 7.33068 20.3565 7.33068 17.7759C7.33068 12.2285 11.263 7.19024 18.8468 7.19024C24.8857 7.19024 29.5904 11.5263 29.5904 17.2844C29.5904 23.3233 25.8512 28.1685 20.4969 28.1685C18.7941 28.1685 17.1264 27.2556 16.5295 26.1848L15.3533 30.3453C14.9495 31.855 13.8436 33.8738 13.0887 35.0851V35.0325Z" fill="white"/>
</svg>
