<svg width="36" height="36" viewBox="0 0 36 36" fill="none" xmlns="http://www.w3.org/2000/svg">
<path d="M23.7228 18.2854C23.7228 19.7403 23.1448 21.1356 22.1161 22.1644C21.0873 23.1931 19.692 23.7711 18.2371 23.7711C16.7822 23.7711 15.3869 23.1931 14.3582 22.1644C13.3294 21.1356 12.7515 19.7403 12.7515 18.2854C12.7515 17.9728 12.7844 17.6674 12.8411 17.3712H10.9229V24.6799C10.9229 25.1882 11.3344 25.5996 11.8427 25.5996H24.6334C24.877 25.5991 25.1105 25.502 25.2826 25.3296C25.4547 25.1572 25.5513 24.9235 25.5513 24.6799V17.3712H23.6332C23.6898 17.6674 23.7228 17.9728 23.7228 18.2854ZM18.2371 21.9425C18.7175 21.9424 19.1931 21.8477 19.6369 21.6637C20.0807 21.4798 20.4839 21.2102 20.8235 20.8705C21.163 20.5307 21.4324 20.1274 21.6161 19.6835C21.7998 19.2397 21.8943 18.764 21.8942 18.2836C21.8941 17.8032 21.7994 17.3276 21.6154 16.8838C21.4315 16.4401 21.1619 16.0369 20.8222 15.6973C20.4824 15.3577 20.0791 15.0883 19.6352 14.9046C19.1914 14.7209 18.7157 14.6264 18.2353 14.6265C17.2651 14.6268 16.3348 15.0124 15.649 15.6986C14.9631 16.3848 14.578 17.3153 14.5782 18.2854C14.5784 19.2556 14.9641 20.1859 15.6503 20.8718C16.3364 21.5576 17.267 21.9428 18.2371 21.9425ZM22.6256 14.4455H24.8181C24.9637 14.4455 25.1034 14.3878 25.2066 14.2849C25.3098 14.1821 25.368 14.0426 25.3685 13.8969V11.7045C25.3685 11.5585 25.3105 11.4185 25.2072 11.3153C25.104 11.2121 24.964 11.1541 24.8181 11.1541H22.6256C22.4797 11.1541 22.3397 11.2121 22.2364 11.3153C22.1332 11.4185 22.0752 11.5585 22.0752 11.7045V13.8969C22.0771 14.1986 22.3239 14.4455 22.6256 14.4455ZM18.2371 0.7314C13.5815 0.7314 9.11656 2.58084 5.82454 5.87286C2.53251 9.16488 0.683075 13.6298 0.683075 18.2854C0.683075 22.9411 2.53251 27.406 5.82454 30.698C9.11656 33.99 13.5815 35.8395 18.2371 35.8395C20.5424 35.8395 22.825 35.3854 24.9548 34.5033C27.0845 33.6211 29.0197 32.3281 30.6497 30.698C32.2797 29.068 33.5728 27.1328 34.4549 25.0031C35.3371 22.8733 35.7912 20.5907 35.7912 18.2854C35.7912 15.9802 35.3371 13.6976 34.4549 11.5678C33.5728 9.43805 32.2797 7.5029 30.6497 5.87286C29.0197 4.24282 27.0845 2.94979 24.9548 2.06762C22.825 1.18545 20.5424 0.7314 18.2371 0.7314ZM27.3799 25.3967C27.3799 26.5139 26.4656 27.4282 25.3483 27.4282H11.1259C10.0087 27.4282 9.09439 26.5139 9.09439 25.3967V11.1742C9.09439 10.057 10.0087 9.14271 11.1259 9.14271H25.3483C26.4656 9.14271 27.3799 10.057 27.3799 11.1742V25.3967Z" fill="white"/>
</svg>
