<svg width="10" height="9" viewBox="0 0 10 9" fill="none" xmlns="http://www.w3.org/2000/svg">
<path d="M4.99995 0.142853C4.15232 0.142853 3.32372 0.394206 2.61893 0.865126C1.91415 1.33605 1.36484 2.00538 1.04047 2.7885C0.71609 3.57161 0.631219 4.43332 0.796584 5.26467C0.961949 6.09601 1.37012 6.85966 1.96949 7.45902C2.56886 8.05839 3.3325 8.46657 4.16385 8.63193C4.9952 8.7973 5.85691 8.71243 6.64002 8.38805C7.42313 8.06367 8.09247 7.51436 8.56339 6.80958C9.03431 6.1048 9.28566 5.2762 9.28566 4.42857C9.28566 3.29192 8.83413 2.20184 8.03041 1.39811C7.22668 0.594382 6.13659 0.142853 4.99995 0.142853ZM4.99995 6.99999C4.49137 6.99999 3.99421 6.84918 3.57134 6.56663C3.14847 6.28408 2.81888 5.88248 2.62426 5.41261C2.42963 4.94274 2.37871 4.42571 2.47793 3.92691C2.57715 3.4281 2.82205 2.96991 3.18167 2.61029C3.5413 2.25067 3.99948 2.00577 4.49829 1.90655C4.9971 1.80733 5.51413 1.85825 5.98399 2.05288C6.45386 2.2475 6.85546 2.57709 7.13801 2.99996C7.42057 3.42283 7.57138 3.91999 7.57138 4.42857C7.5707 5.11034 7.29956 5.764 6.81747 6.24609C6.33538 6.72818 5.68173 6.99931 4.99995 6.99999Z" fill="white"/>
</svg>
