<svg width="36" height="36" viewBox="0 0 36 36" fill="none" xmlns="http://www.w3.org/2000/svg">
<path d="M18.1885 0.7314C8.49358 0.7314 0.634489 8.59049 0.634489 18.2854C0.634489 27.9804 8.49358 35.8395 18.1885 35.8395C27.8835 35.8395 35.7426 27.9804 35.7426 18.2854C35.7426 8.59049 27.8835 0.7314 18.1885 0.7314ZM25.329 15.1111C25.3363 15.261 25.3382 15.411 25.3382 15.5573C25.3382 20.1286 21.8621 25.3967 15.5024 25.3967C13.6232 25.3998 11.7831 24.8601 10.2033 23.8424C10.4721 23.8753 10.7482 23.8881 11.0279 23.8881C12.648 23.8881 14.1383 23.3377 15.3214 22.4088C14.6004 22.3947 13.9018 22.1559 13.323 21.7259C12.7441 21.2958 12.3139 20.6959 12.0922 20.0098C12.6099 20.1082 13.1433 20.0876 13.6519 19.9494C12.8694 19.7912 12.1657 19.3672 11.6601 18.7493C11.1545 18.1314 10.8782 17.3577 10.878 16.5593V16.5172C11.3443 16.7751 11.8782 16.9323 12.4451 16.9506C11.7115 16.4622 11.1921 15.7121 10.9933 14.8535C10.7944 13.9949 10.9311 13.0928 11.3754 12.3317C12.2438 13.3996 13.3269 14.2731 14.5544 14.8959C15.7819 15.5186 17.1266 15.8766 18.5012 15.9467C18.3265 15.2049 18.4017 14.4261 18.7152 13.7315C19.0287 13.0368 19.5629 12.4652 20.2348 12.1054C20.9067 11.7457 21.6786 11.6181 22.4306 11.7423C23.1825 11.8666 23.8723 12.2357 24.3928 12.7925C25.1666 12.6394 25.9086 12.3556 26.5871 11.9532C26.3292 12.7543 25.7892 13.4346 25.0675 13.8677C25.753 13.7851 26.4222 13.6008 27.0533 13.3209C26.5898 14.0156 26.0058 14.6218 25.329 15.1111Z" fill="white"/>
</svg>
